# xmcd
# 
# Track frame offsets:
#   150
#   14342
#   30985
#   43687
#   60040
#   76692
#   92422
#   104630
#   120247
#   132702
# 
# Disc length: 1984 seconds
# 
# Revision: 4
# Processed by: cddbd v1.5.1PL0 Copyright (c) Steve Scherf et al.
# Submitted via: Synapstar 1.0 
# 
DISCID=6c07be0a
DTITLE=Exile - Greatest Hits
DYEAR=1986
DGENRE=Country
TTITLE0=Woke Up in Love
TTITLE1=I Don't Want to Be a Memory
TTITLE2=Give Me One More Chance
TTITLE3=She's a Miracle
TTITLE4=Hang on to Your Heart
TTITLE5=The Girl Can't Help It
TTITLE6=I Could Get Used to You
TTITLE7=Crazy For Your Love
TTITLE8=Super Love
TTITLE9=Kiss You All Over
EXTD=
EXTT0=
EXTT1=
EXTT2=
EXTT3=
EXTT4=
EXTT5=
EXTT6=
EXTT7=
EXTT8=
EXTT9=
PLAYORDER=
